<svg width="26" height="11" viewBox="0 0 26 11" fill="none" xmlns="http://www.w3.org/2000/svg">
<path d="M5.19531 0.560547H5.21875V0.613281C5.04688 0.636719 4.74414 0.810547 4.31055 1.13477C3.97852 1.41992 3.7207 1.80273 3.53711 2.2832C3.36133 2.58008 3.25195 2.88672 3.20898 3.20312C3.12305 3.29297 3.03125 3.625 2.93359 4.19922V4.84961L2.85742 5.61133V6.29102L2.80469 6.36719C2.94922 7.1875 3.06641 7.59766 3.15625 7.59766C3.34766 8.01953 3.49023 8.23828 3.58398 8.25391C3.85742 8.60547 4.11719 8.8418 4.36328 8.96289C4.52344 8.96289 4.6582 9.07617 4.76758 9.30273C5.20898 9.4043 5.57617 9.56055 5.86914 9.77148L6.60156 10.1348C7.23438 10.3262 7.66016 10.4219 7.87891 10.4219H8.35938C8.73047 10.4219 8.94727 10.2578 9.00977 9.92969L9.0332 9.80078C9.0332 9.48438 8.92578 9.32617 8.71094 9.32617C8.52344 9.38086 8.42969 9.51172 8.42969 9.71875V9.74805C8.42969 9.79883 8.50586 9.8418 8.6582 9.87695H8.68164C8.77539 9.87695 8.83398 9.82422 8.85742 9.71875C8.81445 9.57812 8.77344 9.50781 8.73438 9.50781H8.63477L8.55859 9.58984V9.69531L8.6582 9.80078C8.70898 9.80078 8.73438 9.74805 8.73438 9.64258L8.78125 9.69531V9.74805L8.71094 9.82422H8.68164C8.58398 9.82422 8.51758 9.77148 8.48242 9.66602C8.48242 9.57617 8.5332 9.49805 8.63477 9.43164H8.71094C8.85938 9.45898 8.93359 9.5293 8.93359 9.64258C8.93359 9.79102 8.875 9.9043 8.75781 9.98242H8.60547C8.42188 9.94727 8.33008 9.85938 8.33008 9.71875V9.61328C8.33008 9.41016 8.45703 9.2793 8.71094 9.2207C9.02734 9.2207 9.18555 9.46484 9.18555 9.95312C9.18555 10.3945 8.86719 10.6641 8.23047 10.7617L7.83203 10.8145C7.20312 10.8145 6.47461 10.5801 5.64648 10.1113L4.08789 9.4082L3.10938 8.85742C2.875 8.75195 2.67383 8.69922 2.50586 8.69922C2.01758 8.74219 1.54102 8.91602 1.07617 9.2207H0.824219C0.738281 9.2207 0.6875 9.19531 0.671875 9.14453V9.11523C0.988281 9.11523 1.39844 8.77539 1.90234 8.0957C2.01953 7.95898 2.11914 7.45312 2.20117 6.57812C2.26758 6.57812 2.31836 6.16797 2.35352 5.34766V5.03711L2.37695 5.00781L2.35352 4.98438V4.43359L2.40625 4.22266V4.14648L2.35352 3.93555V3.22656C2.35352 2.98828 2.22852 2.69141 1.97852 2.33594L1.55078 2.13086H1.47461C1.32617 2.13086 1.25195 2.19922 1.25195 2.33594C1.25195 2.44141 1.32617 2.49414 1.47461 2.49414L1.49805 2.4707V2.36523L1.375 2.33594C1.375 2.30078 1.40039 2.2832 1.45117 2.2832C1.51758 2.31055 1.55078 2.33789 1.55078 2.36523V2.4707L1.47461 2.54688H1.39844C1.21484 2.52344 1.12305 2.43555 1.12305 2.2832V2.25977C1.12305 2.08398 1.24805 1.99609 1.49805 1.99609L2.1543 2.04883C2.36133 2.04883 3.13086 1.61328 4.46289 0.742188L5.19531 0.560547ZM8.35938 3.33789H8.42383C8.56055 3.44336 8.62891 3.54297 8.62891 3.63672V3.66016L8.60547 3.67773V3.70117L8.64648 3.74219V3.76562C8.40039 3.87891 8.21484 4.03516 8.08984 4.23438C7.92578 4.53125 7.80273 4.84961 7.7207 5.18945L7.74414 5.3418C7.67383 5.50195 7.61133 5.77734 7.55664 6.16797V6.21484L7.57422 6.40234C7.51953 6.54688 7.49219 6.66797 7.49219 6.76562C7.5625 6.97266 7.61719 7.2207 7.65625 7.50977C7.84375 7.9668 8.00977 8.28711 8.1543 8.4707L8.66992 8.85156V8.875L8.54688 9.0625H8.48242C8.31055 9.0625 8.00781 8.97852 7.57422 8.81055L7.43359 8.76367H7.39258C7.2793 8.76367 7.11328 8.80078 6.89453 8.875V8.81055C7.08984 8.56836 7.1875 8.34766 7.1875 8.14844L7.20508 8.13086H7.22852C7.22852 7.70508 7.13867 7.39258 6.95898 7.19336H6.89453C6.89453 7.32227 6.79883 7.48438 6.60742 7.67969C6.60742 7.78906 6.51758 7.91797 6.33789 8.06641C6.17383 8.48828 5.95508 8.76367 5.68164 8.89258L5.6582 8.91602L5.53516 8.82812L5.45312 8.85156C5.39453 8.83984 5.32617 8.75391 5.24805 8.59375C5.24805 8.25 5.21289 7.98047 5.14258 7.78516L5.18359 7.70312L5.125 7.12891V7.02344L5.10156 6.93555C5.13281 6.93555 5.1543 6.69531 5.16602 6.21484C5.10352 5.46094 5.04883 5.08398 5.00195 5.08398L4.96094 5.00195C4.75 4.90039 4.5918 4.84961 4.48633 4.84961C4.38867 4.86914 4.33984 4.89844 4.33984 4.9375V4.95508C4.34766 5.04102 4.36914 5.08398 4.4043 5.08398H4.48633L4.54492 5.01953V4.97852L4.50391 4.91406V4.89062H4.52734L4.60938 4.97852V5.01953C4.60938 5.09766 4.57422 5.1543 4.50391 5.18945H4.46289C4.32617 5.18945 4.25781 5.13281 4.25781 5.01953V4.97852C4.25781 4.84961 4.34766 4.77148 4.52734 4.74414H4.73242L4.83789 4.7207L4.85547 4.74414C4.85547 4.7168 4.91797 4.68945 5.04297 4.66211C5.07422 4.60352 5.21094 4.52539 5.45312 4.42773C5.62891 4.27539 5.82227 4.14062 6.0332 4.02344L6.05078 4.04102V4.12891C6.05078 4.19141 5.97461 4.33203 5.82227 4.55078C5.68555 5.11328 5.58398 5.68945 5.51758 6.2793C5.55664 6.67383 5.59766 6.92188 5.64062 7.02344V7.42773L5.61719 7.5332L5.9043 7.74414C5.96289 7.74414 6.10742 7.64453 6.33789 7.44531C6.4707 7.3125 6.66406 6.87305 6.91797 6.12695C7.07031 5.9043 7.14648 5.55078 7.14648 5.06641V4.89062C7.06836 4.59375 6.94336 4.44531 6.77148 4.44531C6.68945 4.44531 6.62891 4.41016 6.58984 4.33984V4.25781C6.58984 4.21875 6.71289 4.17578 6.95898 4.12891C6.97852 4.08984 7.19141 3.99023 7.59766 3.83008C7.59766 3.80273 7.64648 3.78125 7.74414 3.76562C7.74414 3.72266 7.77148 3.70117 7.82617 3.70117C7.82617 3.64258 7.9082 3.59375 8.07227 3.55469L8.35938 3.33789ZM8.81055 8.6582H8.83398L8.875 8.70508V8.74609H8.81055V8.6582ZM6.67188 8.875H6.77148V8.89258L6.71289 8.95703L6.67188 8.91602V8.875ZM10.8789 3.63672L10.9199 3.68359C10.6934 3.80859 10.541 3.98828 10.4629 4.22266C10.4082 4.39844 10.3672 4.77148 10.3398 5.3418C10.7227 4.95117 11.0449 4.74219 11.3066 4.71484C11.3066 4.69141 11.3555 4.67773 11.4531 4.67383H11.4941C11.6895 4.67383 11.9297 4.75977 12.2148 4.93164C12.2695 5.18945 12.3379 5.40625 12.4199 5.58203C12.4863 5.75781 12.5703 6.08008 12.6719 6.54883C12.6953 6.55273 12.75 6.70508 12.8359 7.00586L12.877 7.36914L12.8359 7.52148L12.8125 7.94922C12.8555 8.17578 12.9316 8.42773 13.041 8.70508C13.0996 8.9082 13.2988 9.10352 13.6387 9.29102L13.5977 9.33203H13.5566L12.6895 8.98633C12.3691 8.98633 12.0742 9.11523 11.8047 9.37305L11.7227 9.24414C11.957 8.97461 12.0742 8.77344 12.0742 8.64062L12.1738 8.06055V8.03711L12.1328 7.97266C12.1758 7.73438 12.1973 7.51953 12.1973 7.32812V7.30469C12.1543 7.30469 12.1191 6.99609 12.0918 6.37891C12.0371 6.37891 12.0098 6.18359 12.0098 5.79297C11.9707 5.79297 11.9434 5.72266 11.9277 5.58203C11.9082 5.58203 11.8867 5.53125 11.8633 5.42969L11.8223 5.3418L11.7227 5.30078H11.4355L11.1836 5.25391C10.9531 5.36328 10.7266 5.56445 10.5039 5.85742C10.3672 5.98633 10.2988 6.17383 10.2988 6.41992H10.2812L10.2988 6.44336C10.2285 6.94336 10.1934 7.30273 10.1934 7.52148C10.2441 7.82227 10.3555 8.18945 10.5273 8.62305L10.7734 8.85742C10.7578 8.90039 10.7168 8.92188 10.6504 8.92188L10.5859 8.89844L10.5684 8.92188H10.5449C10.3184 8.85156 9.94727 8.80078 9.43164 8.76953C9.38086 8.80469 9.2793 8.82617 9.12695 8.83398L9.10352 8.81641V8.79297C9.3418 8.44141 9.5 8.07422 9.57812 7.69141L9.72461 7.07031C9.72461 6.87891 9.74414 6.69922 9.7832 6.53125C9.74414 6.53125 9.72461 6.50781 9.72461 6.46094L9.84766 6.22656L9.86523 5.96875L9.84766 5.77539L9.86523 5.01953C9.86523 4.74609 9.81055 4.50195 9.70117 4.28711V4.26367C9.85742 4.23633 10.043 4.12891 10.2578 3.94141C10.5742 3.73828 10.7812 3.63672 10.8789 3.63672ZM15.5781 2.71094C15.6797 2.71094 15.8965 2.78711 16.2285 2.93945L16.498 2.99805H16.9375L17.5469 2.97461L17.5879 3.0332V3.07422C17.5879 3.09766 17.5117 3.13672 17.3594 3.19141C17.3594 3.22266 17.2832 3.25977 17.1309 3.30273L16.8203 3.80664L16.8438 3.88281L16.8027 3.99414V4.05273L16.7441 4.75L16.709 4.78516V4.9375L16.7617 5.65234L16.8613 5.72852V5.76953C16.8613 5.79297 16.8281 5.80469 16.7617 5.80469C16.6758 6.01172 16.6328 6.30664 16.6328 6.68945L16.6504 7.05273L16.5742 7.91992C16.6758 8.35742 16.7578 8.57617 16.8203 8.57617L16.9199 8.69336V8.72852L16.8789 8.76953H16.709L16.4746 8.82812H16.2285C16.1895 8.78125 16.0742 8.74805 15.8828 8.72852L15.7891 8.71094L15.7656 8.69336V8.66992C15.9844 8.44727 16.0938 8.20508 16.0938 7.94336L16.1523 7.72656L16.1348 7.4043L16.1523 7.28711L16.1348 7.13477L16.1875 6.6543L16.1113 6.28516L16.0527 6.20898L16.0352 6.19141H16.0176L16.0938 6.07422V5.93945L16.0527 5.9043H15.8828C15.082 6.00977 14.6543 6.13086 14.5996 6.26758C14.4043 6.33008 14.1992 6.45117 13.9844 6.63086C13.9219 6.70117 13.8906 6.88086 13.8906 7.16992C13.8906 7.24805 13.9414 7.31836 14.043 7.38086C14.1719 7.58398 14.3262 7.73242 14.5059 7.82617C15.0254 8.0957 15.3125 8.23047 15.3672 8.23047H15.5195C15.7891 8.23047 15.9238 8.12695 15.9238 7.91992V7.90234C15.8613 7.8125 15.791 7.76758 15.7129 7.76758H15.6895C15.623 7.79883 15.5723 7.84961 15.5371 7.91992V7.94336L15.6133 8.03711H15.6543C15.6816 8.0293 15.707 7.99805 15.7305 7.94336L15.6719 7.91992V7.88477H15.6895L15.7656 7.96094C15.7656 8.03125 15.7227 8.0957 15.6367 8.1543C15.5 8.1543 15.4219 8.06445 15.4023 7.88477C15.4023 7.74414 15.5176 7.67383 15.748 7.67383C15.877 7.67383 15.9727 7.76953 16.0352 7.96094C16.0352 8.12109 15.9785 8.23047 15.8652 8.28906C15.6387 8.50391 15.4277 8.61133 15.2324 8.61133C14.7402 8.41992 14.4648 8.32422 14.4062 8.32422C14.1016 8.23047 13.873 8.04492 13.7207 7.76758C13.6309 7.76758 13.5156 7.61328 13.375 7.30469L13.3164 6.92383C13.3164 6.56836 13.4062 6.36133 13.5859 6.30273C13.6367 6.16211 13.7129 6.0918 13.8145 6.0918C13.9238 6.00195 14.1289 5.875 14.4297 5.71094C14.6016 5.64453 14.8809 5.5918 15.2676 5.55273C15.8184 5.50195 16.0938 5.45117 16.0938 5.40039H16.1348V5.38281C16.1348 5.09766 16.1211 4.91211 16.0938 4.82617L16.1113 4.75L16.0938 4.66797C16.1328 4.66797 16.1523 4.59766 16.1523 4.45703V4.39844C16.1289 3.97656 16.1035 3.76562 16.0762 3.76562L16.0938 3.70703C16.0938 3.61719 16.0371 3.49023 15.9238 3.32617C15.7676 2.97852 15.6191 2.80469 15.4785 2.80469L15.4258 2.72852L15.4434 2.71094H15.5781ZM16.3457 2.80469H16.3984V2.8457H16.3457V2.80469ZM19.2402 3.83594H19.2637C19.3535 3.83594 19.4414 3.89844 19.5273 4.02344C19.6055 4.04297 19.832 4.24805 20.207 4.63867L20.582 5.10742L20.6934 5.48828V5.55859C20.6738 5.73438 20.5859 5.92969 20.4297 6.14453C20.2383 6.55469 20.0625 6.75977 19.9023 6.75977L19.8379 6.7832C19.5098 6.7832 19.0254 6.58594 18.3848 6.19141C18.2832 6.08594 18.2324 5.97656 18.2324 5.86328V5.81641C18.2988 5.5625 18.459 5.43555 18.7129 5.43555H18.7363C18.8535 5.43555 18.9121 5.50781 18.9121 5.65234C18.873 5.79297 18.8359 5.86328 18.8008 5.86328H18.6719L18.584 5.76953V5.72266L18.625 5.67578C18.625 5.73828 18.6406 5.76953 18.6719 5.76953L18.7363 5.69922V5.62891C18.7207 5.58203 18.6777 5.55859 18.6074 5.55859C18.5371 5.55859 18.4844 5.63672 18.4492 5.79297C18.4492 5.91406 18.6328 6.03906 19 6.16797C19.1797 6.30469 19.4062 6.39062 19.6797 6.42578C19.8906 6.42578 20.0742 6.26953 20.2305 5.95703L20.2773 5.91016V5.58203C20.2188 5.20703 20.123 4.94727 19.9902 4.80273C19.6777 4.55273 19.4863 4.42773 19.416 4.42773H19.2871C19.2012 4.42773 19.0391 4.54492 18.8008 4.7793C18.6602 4.81055 18.4629 5.10938 18.209 5.67578L18.0098 6.19141V6.35547L18.3203 7.13477C18.3906 7.45898 18.5742 7.73242 18.8711 7.95508C19.1914 8.17773 19.3965 8.28906 19.4863 8.28906L19.8145 8.3125C19.959 8.3125 20.0977 8.21875 20.2305 8.03125V7.81445L20.2773 7.74414L20.1016 7.04102C20.1016 7.00586 20.166 6.98242 20.2949 6.9707C20.4512 7.0293 20.5547 7.09961 20.6055 7.18164V7.55664C20.6055 7.92383 20.4805 8.21484 20.2305 8.42969C20.0156 8.64062 19.8555 8.77344 19.75 8.82812H19.7031C19.2383 8.6875 18.9746 8.5625 18.9121 8.45312C18.8145 8.42188 18.7188 8.33594 18.625 8.19531C18.4023 7.92578 18.25 7.76758 18.168 7.7207L17.7695 7.06445C17.6875 7.06445 17.5918 6.89844 17.4824 6.56641V6.35547L17.418 6.21484L17.8164 5.53516C17.832 5.37109 18.0137 5.10352 18.3613 4.73242C18.3613 4.68555 18.5742 4.44922 19 4.02344L19.2402 3.83594ZM18.4082 4.35742H18.4316L18.3613 4.42773V4.4043L18.4082 4.35742ZM23.582 3.0625C23.6953 3.15234 24.0938 3.29688 24.7773 3.49609C25.3398 3.58203 25.6211 3.65039 25.6211 3.70117V3.7832L25.5801 3.83008H25.4453C25.2852 3.83008 25.1562 3.93359 25.0586 4.14062L24.9473 4.22266L24.9941 4.28125V4.3457C24.7598 4.68164 24.4766 5.2207 24.1445 5.96289C24.1328 6.07617 24.0605 6.31836 23.9277 6.68945C23.7129 7.15039 23.5684 7.53711 23.4941 7.84961C23.4473 7.92773 23.4121 8.03906 23.3887 8.18359C23.3027 8.51172 23.2305 8.72656 23.1719 8.82812H22.9961C22.9883 8.57812 22.8867 8.25195 22.6914 7.84961C22.6914 7.79883 22.5762 7.48828 22.3457 6.91797L22.3691 6.77148L22.1113 5.96289C22.1113 5.81836 21.9941 5.52148 21.7598 5.07227C21.627 4.95508 21.4902 4.73438 21.3496 4.41016C21.3105 4.41016 21.1797 4.25781 20.957 3.95312C20.7852 3.92969 20.6992 3.83203 20.6992 3.66016V3.64258L20.7227 3.61914V3.60156L20.7402 3.61914H21.373C21.5684 3.5957 21.8789 3.4707 22.3047 3.24414C22.418 3.26367 22.4746 3.29297 22.4746 3.33203V3.34961C22.3887 3.4668 22.3457 3.61133 22.3457 3.7832L22.4102 3.91211L22.3926 4.01172V4.1582C22.3926 4.25977 22.4141 4.37695 22.457 4.50977V4.59766L22.3457 5.23633C22.4043 5.50977 22.4766 5.76562 22.5625 6.00391L22.5449 6.02734L22.8906 6.79492C22.9922 6.8418 23.043 6.89648 23.043 6.95898L23.084 6.91797L23.1074 6.94141H23.1484C23.1914 6.94141 23.2129 6.89844 23.2129 6.8125C23.334 6.58984 23.4434 6.42383 23.541 6.31445L23.7578 5.75781L23.8633 5.23633V4.94922C23.9062 4.82031 23.9277 4.64648 23.9277 4.42773L23.9102 4.28125L23.9277 4.26367V4.24023C23.8027 3.64648 23.6875 3.34961 23.582 3.34961C23.582 3.33008 23.5527 3.31055 23.4941 3.29102V3.24414C23.5098 3.12305 23.5391 3.0625 23.582 3.0625Z" fill="white"/>
</svg>
